<?xml version="1.0" encoding="utf-8"?>
<svg width="500px" height="700px" viewBox="0 0 500 700" version="1.1" xmlns:xlink="http://www.w3.org/1999/xlink" xmlns="http://www.w3.org/2000/svg">
  <defs>
    <linearGradient gradientUnits="objectBoundingBox" x1="0.98156357" y1="-0.39959455" x2="7.771126" y2="1.1117635" id="gradient_1">
      <stop offset="8%" stop-color="#2FBBB3" />
      <stop offset="60.000004%" stop-color="#6E46DD" stop-opacity="0.8" />
      <stop offset="100%" stop-color="#E35EC7" />
    </linearGradient>
    <linearGradient gradientUnits="objectBoundingBox" x1="-0.13675165" y1="-0.39951634" x2="1.6551652" y2="1.0937848" id="gradient_2">
      <stop offset="8%" stop-color="#2FBBB3" />
      <stop offset="60.000004%" stop-color="#6E46DD" stop-opacity="0.8" />
      <stop offset="100%" stop-color="#E35EC7" />
    </linearGradient>
    <linearGradient gradientUnits="objectBoundingBox" x1="-1.6014671" y1="-0.82175064" x2="0.74099874" y2="1.1297836" id="gradient_3">
      <stop offset="8%" stop-color="#2FBBB3" />
      <stop offset="60.000004%" stop-color="#6E46DD" stop-opacity="0.8" />
      <stop offset="100%" stop-color="#E35EC7" />
    </linearGradient>
    <linearGradient gradientUnits="objectBoundingBox" x1="-3.4217749" y1="-0.5176692" x2="-0.50936604" y2="1.1081204" id="gradient_4">
      <stop offset="8%" stop-color="#2FBBB3" />
      <stop offset="60.000004%" stop-color="#6E46DD" stop-opacity="0.8" />
      <stop offset="100%" stop-color="#E35EC7" />
    </linearGradient>
    <linearGradient gradientUnits="objectBoundingBox" x1="0" y1="0.49992633" x2="1" y2="0.49992633" id="gradient_5">
      <stop offset="0%" stop-color="#2FBBB3" />
      <stop offset="48.999996%" stop-color="#6E46DD" />
      <stop offset="100%" stop-color="#E35EC7" />
    </linearGradient>
    <linearGradient gradientUnits="objectBoundingBox" x1="-1.0251999E-05" y1="0.49995446" x2="1.0000176" y2="0.49995446" id="gradient_6">
      <stop offset="0%" stop-color="#2FBBB3" />
      <stop offset="44%" stop-color="#6E46DD" stop-opacity="0.8" />
      <stop offset="100%" stop-color="#E35EC7" />
    </linearGradient>
    <linearGradient gradientUnits="objectBoundingBox" x1="0.00018501282" y1="0.49977398" x2="1.0000973" y2="0.49977398" id="gradient_7">
      <stop offset="0%" stop-color="#645AD9" />
      <stop offset="100%" stop-color="#994FD9" />
    </linearGradient>
    <linearGradient gradientUnits="objectBoundingBox" x1="-2.515316E-05" y1="0.50003314" x2="0.9999999" y2="0.50003314" id="gradient_8">
      <stop offset="0%" stop-color="#2FBBB3" />
      <stop offset="44%" stop-color="#6E46DD" stop-opacity="0.8" />
      <stop offset="100%" stop-color="#E35EC7" />
    </linearGradient>
    <linearGradient gradientUnits="objectBoundingBox" x1="5.7458878E-05" y1="0.5" x2="0.99999976" y2="0.5" id="gradient_9">
      <stop offset="34%" stop-color="#507FC8" stop-opacity="0" />
      <stop offset="100%" stop-color="#B353F1" />
    </linearGradient>
    <linearGradient gradientUnits="objectBoundingBox" x1="9.536743E-07" y1="0.5" x2="0.9998598" y2="0.5" id="gradient_10">
      <stop offset="0%" stop-color="#A64ED9" />
      <stop offset="76%" stop-color="#A74DD9" stop-opacity="0" />
    </linearGradient>
    <linearGradient gradientUnits="objectBoundingBox" x1="9.536743E-07" y1="0.5" x2="0.9998598" y2="0.5" id="gradient_11">
      <stop offset="0%" stop-color="#A64ED9" />
      <stop offset="100%" stop-color="#A74DD9" stop-opacity="0" />
    </linearGradient>
    <filter id="filter_1">
      <feColorMatrix in="SourceGraphic" type="matrix" values="0 0 0 0 0.41960785 0 0 0 0 0.48235294 0 0 0 0 0.5568628 0 0 0 1 0" color-interpolation-filters="sRGB" />
    </filter>
  </defs>
  <g id="Total">
    <g id="Group" transform="translate(71.08905 617.7719)" filter="url(#filter_1)">
      <g id="STUDIOS">
        <g id="STUDIOS" fill="#6B7B8E">
          <path d="M18.54 58.56Q13.74 58.56 9.36 57.09Q4.98 55.62 2.46 53.28L4.68 48.6Q7.08 50.7 10.8 52.08Q14.52 53.46 18.54 53.46Q22.2 53.46 24.48 52.62Q26.76 51.78 27.84 50.31Q28.92 48.84 28.92 46.98Q28.92 44.82 27.51 43.5Q26.1 42.18 23.85 41.37Q21.6 40.56 18.9 39.96Q16.2 39.36 13.47 38.55Q10.74 37.74 8.49 36.48Q6.24 35.22 4.86 33.09Q3.48 30.96 3.48 27.6Q3.48 24.36 5.19 21.63Q6.9 18.9 10.47 17.25Q14.04 15.6 19.56 15.6Q23.22 15.6 26.82 16.56Q30.42 17.52 33.06 19.32L31.08 24.12Q28.38 22.32 25.38 21.51Q22.38 20.7 19.56 20.7Q16.02 20.7 13.74 21.6Q11.46 22.5 10.41 24Q9.36 25.5 9.36 27.36Q9.36 29.58 10.77 30.9Q12.18 32.22 14.43 33Q16.68 33.78 19.38 34.41Q22.08 35.04 24.81 35.82Q27.54 36.6 29.79 37.86Q32.04 39.12 33.42 41.22Q34.8 43.32 34.8 46.62Q34.8 49.8 33.06 52.53Q31.32 55.26 27.69 56.91Q24.06 58.56 18.54 58.56ZM63.3 58.08L63.3 21.3L48.9 21.3L48.9 16.08L83.64 16.08L83.64 21.3L69.24 21.3L69.24 58.08L63.3 58.08ZM118.8 58.56Q110.52 58.56 105.78 53.82Q101.04 49.08 101.04 39.96L101.04 16.08L107.04 16.08L107.04 39.72Q107.04 46.74 110.13 49.98Q113.22 53.22 118.86 53.22Q124.56 53.22 127.65 49.98Q130.74 46.74 130.74 39.72L130.74 16.08L136.56 16.08L136.56 39.96Q136.56 49.08 131.85 53.82Q127.14 58.56 118.8 58.56ZM160.86 58.08L160.86 16.08L178.56 16.08Q185.28 16.08 190.41 18.72Q195.54 21.36 198.39 26.1Q201.24 30.84 201.24 37.08Q201.24 43.32 198.39 48.06Q195.54 52.8 190.41 55.44Q185.28 58.08 178.56 58.08L160.86 58.08ZM166.86 52.86L178.2 52.86Q183.42 52.86 187.23 50.88Q191.04 48.9 193.14 45.33Q195.24 41.76 195.24 37.08Q195.24 32.34 193.14 28.8Q191.04 25.26 187.23 23.28Q183.42 21.3 178.2 21.3L166.86 21.3L166.86 52.86ZM222.42 58.08L222.42 16.08L228.42 16.08L228.42 58.08L222.42 58.08ZM271.98 58.56Q267.18 58.56 263.07 56.94Q258.96 55.32 255.96 52.41Q252.96 49.5 251.28 45.6Q249.6 41.7 249.6 37.08Q249.6 32.46 251.28 28.56Q252.96 24.66 255.96 21.75Q258.96 18.84 263.04 17.22Q267.12 15.6 271.98 15.6Q276.78 15.6 280.83 17.19Q284.88 18.78 287.91 21.69Q290.94 24.6 292.59 28.5Q294.24 32.4 294.24 37.08Q294.24 41.76 292.59 45.66Q290.94 49.56 287.91 52.47Q284.88 55.38 280.83 56.97Q276.78 58.56 271.98 58.56ZM271.98 53.22Q275.46 53.22 278.43 52.02Q281.4 50.82 283.59 48.63Q285.78 46.44 287.01 43.5Q288.24 40.56 288.24 37.08Q288.24 33.6 287.01 30.66Q285.78 27.72 283.59 25.53Q281.4 23.34 278.43 22.14Q275.46 20.94 271.98 20.94Q268.44 20.94 265.47 22.14Q262.5 23.34 260.28 25.53Q258.06 27.72 256.83 30.66Q255.6 33.6 255.6 37.08Q255.6 40.56 256.83 43.5Q258.06 46.44 260.28 48.63Q262.5 50.82 265.47 52.02Q268.44 53.22 271.98 53.22ZM327.66 58.56Q322.86 58.56 318.48 57.09Q314.1 55.62 311.58 53.28L313.8 48.6Q316.2 50.7 319.92 52.08Q323.64 53.46 327.66 53.46Q331.32 53.46 333.6 52.62Q335.88 51.78 336.96 50.31Q338.04 48.84 338.04 46.98Q338.04 44.82 336.63 43.5Q335.22 42.18 332.97 41.37Q330.72 40.56 328.02 39.96Q325.32 39.36 322.59 38.55Q319.86 37.74 317.61 36.48Q315.36 35.22 313.98 33.09Q312.6 30.96 312.6 27.6Q312.6 24.36 314.31 21.63Q316.02 18.9 319.59 17.25Q323.16 15.6 328.68 15.6Q332.34 15.6 335.94 16.56Q339.54 17.52 342.18 19.32L340.2 24.12Q337.5 22.32 334.5 21.51Q331.5 20.7 328.68 20.7Q325.14 20.7 322.86 21.6Q320.58 22.5 319.53 24Q318.48 25.5 318.48 27.36Q318.48 29.58 319.89 30.9Q321.3 32.22 323.55 33Q325.8 33.78 328.5 34.41Q331.2 35.04 333.93 35.82Q336.66 36.6 338.91 37.86Q341.16 39.12 342.54 41.22Q343.92 43.32 343.92 46.62Q343.92 49.8 342.18 52.53Q340.44 55.26 336.81 56.91Q333.18 58.56 327.66 58.56Z" />
        </g>
      </g>
    </g>
    <g id="Group" transform="translate(46.229065 409.7719)">
      <g id="Group" transform="translate(9.640015 50.51996)">
        <path d="M0 15.82C0 6.91003 7.09003 0 17.63 0C28.17 0 35.26 6.53998 35.26 15.27C35.26 24.72 28.17 31.63 17.63 31.63C7.09003 31.63 0 24.72 0 15.81L0 15.82ZM3.45001 45.27L31.81 45.27L31.81 143.07L3.45001 143.07L3.45001 45.27L3.45001 45.27Z" id="Shape" fill="url(#gradient_1)" fill-rule="evenodd" stroke="none" />
        <path d="M52.88 73.08C52.88 30.88 85.28 0.679993 128.88 0.679993C153.08 0.679993 173.28 9.47998 186.48 25.48L165.68 44.68C156.28 33.88 144.48 28.28 130.48 28.28C104.28 28.28 85.68 46.68 85.68 73.0799C85.68 99.4799 104.28 117.88 130.48 117.88C144.48 117.88 156.28 112.28 165.68 101.28L186.48 120.48C173.28 136.68 153.08 145.48 128.68 145.48C85.28 145.48 52.88 115.28 52.88 73.0799L52.88 73.08Z" id="Shape" fill="url(#gradient_2)" stroke="none" />
        <path d="M300.48 81.68L300.48 143.08L271.28 143.08L271.28 129.68C265.48 139.48 254.28 144.68 238.48 144.68C213.28 144.68 198.28 130.68 198.28 112.08C198.28 93.48 211.68 79.88 244.48 79.88L269.28 79.88C269.28 66.48 261.28 58.68 244.48 58.68C233.08 58.68 221.28 62.48 213.48 68.68L202.28 46.88C214.08 38.48 231.48 33.88 248.68 33.88C281.48 33.88 300.48 49.08 300.48 81.68L300.48 81.68ZM269.28 109.08L269.28 98.08L247.88 98.08C233.28 98.08 228.68 103.48 228.68 110.68C228.68 118.48 235.28 123.68 246.28 123.68C256.68 123.68 265.68 118.88 269.28 109.08L269.28 109.08Z" id="Shape" fill="url(#gradient_3)" fill-rule="evenodd" stroke="none" />
        <path d="M398.08 137.88C391.68 142.48 382.28 144.68 372.68 144.68C347.28 144.68 332.48 131.68 332.48 106.08L332.48 61.88L315.88 61.88L315.88 37.88L332.48 37.88L332.48 11.68L363.68 11.68L363.68 37.88L390.48 37.88L390.48 61.88L363.68 61.88L363.68 105.68C363.68 114.88 368.68 119.88 377.08 119.88C381.68 119.88 386.28 118.48 389.68 115.88L398.08 137.88L398.08 137.88Z" id="Shape" fill="url(#gradient_4)" stroke="none" />
      </g>
    </g>
    <g id="Logo_Head" transform="translate(28.699066 11.000015)">
      <g id="Group">
        <g id="Group" transform="translate(0 127.94998)">
          <path d="M0 71.01L0 28.72C0 28.72 3.47 0.160004 33.3 0L413.98 0C413.98 0 442.74 1.26001 442.74 33.93L442.74 67.31C442.74 67.31 441.67 98.08 428.06 107.43C414.45 116.78 379.89 123.76 379.89 123.76C379.89 123.76 334.32 132.72 305.32 133.11C273.24 133.54 267.28 127.31 247.6 111.37C223.53 91.88 205.84 97.15 193.53 108.83L176.74 125.58C176.74 125.58 167.9 135.21 150.39 135.36L139.82 135.36C139.82 135.36 51.6 127.31 19.88 110.9C19.88 110.9 3.05176e-05 103.17 3.05176e-05 71.01L0 71.01Z" id="Shape" fill="#2FBBB3" stroke="none" />
          <path d="M0 71.01L0 28.72C0 28.72 3.47 0.160004 33.3 0L413.98 0C413.98 0 442.74 1.26001 442.74 33.93L442.74 67.31C442.74 67.31 441.67 98.08 428.06 107.43C414.45 116.78 379.89 123.76 379.89 123.76C379.89 123.76 334.32 132.72 305.32 133.11C273.24 133.54 267.28 127.31 247.6 111.37C223.53 91.88 205.84 97.15 193.53 108.83L176.74 125.58C176.74 125.58 167.9 135.21 150.39 135.36L139.82 135.36C139.82 135.36 51.6 127.31 19.88 110.9C19.88 110.9 3.05176e-05 103.17 3.05176e-05 71.01L0 71.01Z" id="Shape" fill="#2FBBB3" stroke="none" />
          <path d="M0 71.01L0 28.72C0 28.72 3.47 0.160004 33.3 0L413.98 0C413.98 0 442.74 1.26001 442.74 33.93L442.74 67.31C442.74 67.31 441.67 98.08 428.06 107.43C414.45 116.78 379.89 123.76 379.89 123.76C379.89 123.76 334.32 132.72 305.32 133.11C273.24 133.54 267.28 127.31 247.6 111.37C223.53 91.88 205.84 97.15 193.53 108.83L176.74 125.58C176.74 125.58 167.9 135.21 150.39 135.36L139.82 135.36C139.82 135.36 51.6 127.31 19.88 110.9C19.88 110.9 3.05176e-05 103.17 3.05176e-05 71.01L0 71.01Z" id="Shape" fill="url(#gradient_5)" stroke="none" />
        </g>
        <g id="Group" transform="translate(35.85385 0)">
          <path d="M29.9861 108.18L0.00616455 109.44C0.00616455 109.44 -0.863831 42.37 18.0762 0C18.0762 0 83.8862 10.42 144.006 74.33C144.006 74.33 182.706 66.76 227.326 74.33C227.326 74.33 284.966 13.02 351.486 0.949982C351.486 0.949982 372.236 47.27 371.926 109.45L342.016 108.38C342.016 108.38 342.376 56.97 333.256 37.8C333.256 37.8 272.536 58.75 239.166 107.04C239.166 107.04 185.276 94.18 132.406 107.28C132.406 107.28 98.9462 58.52 38.3462 37.53C38.3462 37.53 26.0362 75.96 29.9862 108.19L29.9861 108.18Z" id="Shape" fill="#2FBBB3" stroke="none" />
          <path d="M29.9861 108.18L0.00616455 109.44C0.00616455 109.44 -0.863831 42.37 18.0762 0C18.0762 0 83.8862 10.42 144.006 74.33C144.006 74.33 182.706 66.76 227.326 74.33C227.326 74.33 284.966 13.02 351.486 0.949982C351.486 0.949982 372.236 47.27 371.926 109.45L342.016 108.38C342.016 108.38 342.376 56.97 333.256 37.8C333.256 37.8 272.536 58.75 239.166 107.04C239.166 107.04 185.276 94.18 132.406 107.28C132.406 107.28 98.9462 58.52 38.3462 37.53C38.3462 37.53 26.0362 75.96 29.9862 108.19L29.9861 108.18Z" id="Shape" fill="#2FBBB3" stroke="none" />
          <path d="M29.9861 108.18L0.00616455 109.44C0.00616455 109.44 -0.863831 42.37 18.0762 0C18.0762 0 83.8862 10.42 144.006 74.33C144.006 74.33 182.706 66.76 227.326 74.33C227.326 74.33 284.966 13.02 351.486 0.949982C351.486 0.949982 372.236 47.27 371.926 109.45L342.016 108.38C342.016 108.38 342.376 56.97 333.256 37.8C333.256 37.8 272.536 58.75 239.166 107.04C239.166 107.04 185.276 94.18 132.406 107.28C132.406 107.28 98.9462 58.52 38.3462 37.53C38.3462 37.53 26.0362 75.96 29.9862 108.19L29.9861 108.18Z" id="Shape" fill="url(#gradient_6)" stroke="none" />
        </g>
        <path d="M220.38 301.71C220.38 301.71 239.81 288.42 247.56 278.34C255.31 268.26 238.31 266.99 238.31 266.99C238.31 266.99 226.62 265.94 220.37 268.49C220.37 268.49 212.11 266.99 202.36 267.44C192.61 267.89 189.07 272.59 194.65 279.03C200.76 286.08 220.37 301.72 220.37 301.72L220.38 301.71Z" id="Shape" fill="url(#gradient_7)" stroke="none" />
        <g id="Group" transform="translate(22.019989 258.57)">
          <path d="M50.18 26.51C50.18 26.51 58.54 26.04 98 22.72C98 22.72 32.35 14.36 0 0C0 0 20.2 44.19 103.52 96.74C103.52 96.74 137.13 118.36 200.34 149.13C200.34 149.13 233.24 135.24 286.58 103.68C286.58 103.68 367.69 54.13 396.73 3.05176e-05C396.73 3.05176e-05 369.59 15.31 299.83 22.25C299.83 22.25 321.61 24.88 347.17 25.78C347.17 25.78 275.9 73.62 199.34 91.61C199.34 91.61 158.72 87.98 50.17 26.51L50.18 26.51Z" id="Shape" fill="#2FBBB3" stroke="none" />
          <path d="M50.18 26.51C50.18 26.51 58.54 26.04 98 22.72C98 22.72 32.35 14.36 0 0C0 0 20.2 44.19 103.52 96.74C103.52 96.74 137.13 118.36 200.34 149.13C200.34 149.13 233.24 135.24 286.58 103.68C286.58 103.68 367.69 54.13 396.73 3.05176e-05C396.73 3.05176e-05 369.59 15.31 299.83 22.25C299.83 22.25 321.61 24.88 347.17 25.78C347.17 25.78 275.9 73.62 199.34 91.61C199.34 91.61 158.72 87.98 50.17 26.51L50.18 26.51Z" id="Shape" fill="#2FBBB3" stroke="none" />
          <path d="M50.18 26.51C50.18 26.51 58.54 26.04 98 22.72C98 22.72 32.35 14.36 0 0C0 0 20.2 44.19 103.52 96.74C103.52 96.74 137.13 118.36 200.34 149.13C200.34 149.13 233.24 135.24 286.58 103.68C286.58 103.68 367.69 54.13 396.73 3.05176e-05C396.73 3.05176e-05 369.59 15.31 299.83 22.25C299.83 22.25 321.61 24.88 347.17 25.78C347.17 25.78 275.9 73.62 199.34 91.61C199.34 91.61 158.72 87.98 50.17 26.51L50.18 26.51Z" id="Shape" fill="url(#gradient_8)" stroke="none" />
        </g>
        <path d="M209.57 368.3C174.17 365.33 122.84 345.04 89.51 330.34C99.95 338.34 111.89 346.71 125.53 355.31C125.53 355.31 159.14 376.93 222.35 407.7C222.35 407.7 237.46 401.32 263.77 387.4C256.28 379.92 240.89 370.92 209.57 368.29L209.57 368.3Z" id="Shape" fill="url(#gradient_9)" stroke="none" />
        <g id="Group" transform="translate(276.31992 327.53)" opacity="0.6">
          <path d="M32.0101 34.87C32.0101 34.87 49.3801 24.26 70.92 7.48999L54.21 0C18.2 19.79 4.89001 40.11 0 53.12C9.59997 47.86 20.31 41.79 32.01 34.87L32.0101 34.87Z" id="Shape" fill="url(#gradient_10)" stroke="none" />
          <path d="M32.0101 34.87C32.0101 34.87 49.3801 24.26 70.92 7.48999L54.21 0C18.2 19.79 4.89001 40.11 0 53.12C9.59997 47.86 20.31 41.79 32.01 34.87L32.0101 34.87Z" id="Shape" fill="url(#gradient_11)" stroke="none" />
        </g>
      </g>
    </g>
  </g>
</svg>