<?xml version="1.0" encoding="utf-8"?>
<svg width="512px" height="512px" viewBox="0 0 512 512" version="1.1" xmlns:xlink="http://www.w3.org/1999/xlink" xmlns="http://www.w3.org/2000/svg">
  <defs>
    <linearGradient gradientUnits="objectBoundingBox" x1="0" y1="0.49992633" x2="1" y2="0.49992633" id="gradient_1">
      <stop offset="0%" stop-color="#2FBBB3" />
      <stop offset="48.999996%" stop-color="#6E46DD" />
      <stop offset="100%" stop-color="#E35EC7" />
    </linearGradient>
    <linearGradient gradientUnits="objectBoundingBox" x1="-1.0251999E-05" y1="0.49995446" x2="1.0000176" y2="0.49995446" id="gradient_2">
      <stop offset="0%" stop-color="#2FBBB3" />
      <stop offset="44%" stop-color="#6E46DD" stop-opacity="0.8" />
      <stop offset="100%" stop-color="#E35EC7" />
    </linearGradient>
    <linearGradient gradientUnits="objectBoundingBox" x1="0.00018501282" y1="0.49977398" x2="1.0000973" y2="0.49977398" id="gradient_3">
      <stop offset="0%" stop-color="#645AD9" />
      <stop offset="100%" stop-color="#994FD9" />
    </linearGradient>
    <linearGradient gradientUnits="objectBoundingBox" x1="-2.515316E-05" y1="0.50003314" x2="0.9999999" y2="0.50003314" id="gradient_4">
      <stop offset="0%" stop-color="#2FBBB3" />
      <stop offset="44%" stop-color="#6E46DD" stop-opacity="0.8" />
      <stop offset="100%" stop-color="#E35EC7" />
    </linearGradient>
    <linearGradient gradientUnits="objectBoundingBox" x1="5.7458878E-05" y1="0.5" x2="0.99999976" y2="0.5" id="gradient_5">
      <stop offset="34%" stop-color="#507FC8" stop-opacity="0" />
      <stop offset="100%" stop-color="#B353F1" />
    </linearGradient>
    <linearGradient gradientUnits="objectBoundingBox" x1="9.536743E-07" y1="0.5" x2="0.9998598" y2="0.5" id="gradient_6">
      <stop offset="0%" stop-color="#A64ED9" />
      <stop offset="76%" stop-color="#A74DD9" stop-opacity="0" />
    </linearGradient>
    <linearGradient gradientUnits="objectBoundingBox" x1="9.536743E-07" y1="0.5" x2="0.9998598" y2="0.5" id="gradient_7">
      <stop offset="0%" stop-color="#A64ED9" />
      <stop offset="100%" stop-color="#A74DD9" stop-opacity="0" />
    </linearGradient>
    <path d="M1920 0L1920 0L1920 1080L0 1080L0 0L1920 0Z" id="path_1" />
    <rect width="512" height="512" id="slice_1" />
    <clipPath id="clip_1">
      <use xlink:href="#slice_1" clip-rule="evenodd" />
    </clipPath>
    <clipPath id="clip_2">
      <use xlink:href="#path_1" />
    </clipPath>
  </defs>
  <g id="Slice" clip-path="url(#clip_1)">
    <use xlink:href="#slice_1" stroke="none" fill="none" />
    <g id="icat logo 8" clip-path="url(#clip_2)" transform="translate(-1335.2109 -186.42188)">
      <path d="M1920 0L1920 0L1920 1080L0 1080L0 0L1920 0Z" id="icat-logo-8" fill="none" stroke="none" />
    </g>
    <g id="Group">
      <g id="Logo_Head-2" transform="translate(56.999878 72.00003)">
        <g id="Group">
          <g id="Group" transform="translate(0 115.5983)">
            <path d="M0 64.155L0 25.9475C0 25.9475 3.13502 0.144558 30.0854 0L374.016 0C374.016 0 400 1.13837 400 30.6546L400 60.8122C400 60.8122 399.033 88.6118 386.737 97.0592C374.441 105.507 343.217 111.813 343.217 111.813C343.217 111.813 302.046 119.908 275.846 120.26C246.863 120.649 241.478 115.02 223.698 100.619C201.951 83.0103 185.969 87.7716 174.848 98.3241L159.678 113.457C159.678 113.457 151.692 122.157 135.872 122.293L126.322 122.293C126.322 122.293 46.6188 115.02 17.9609 100.194C17.9609 100.194 2.75716e-05 93.2104 2.75716e-05 64.155L0 64.155Z" id="Shape" fill="#2FBBB3" stroke="none" />
            <path d="M0 64.155L0 25.9475C0 25.9475 3.13502 0.144558 30.0854 0L374.016 0C374.016 0 400 1.13837 400 30.6546L400 60.8122C400 60.8122 399.033 88.6118 386.737 97.0592C374.441 105.507 343.217 111.813 343.217 111.813C343.217 111.813 302.046 119.908 275.846 120.26C246.863 120.649 241.478 115.02 223.698 100.619C201.951 83.0103 185.969 87.7716 174.848 98.3241L159.678 113.457C159.678 113.457 151.692 122.157 135.872 122.293L126.322 122.293C126.322 122.293 46.6188 115.02 17.9609 100.194C17.9609 100.194 2.75716e-05 93.2104 2.75716e-05 64.155L0 64.155Z" id="Shape" fill="#2FBBB3" stroke="none" />
            <path d="M0 64.155L0 25.9475C0 25.9475 3.13502 0.144558 30.0854 0L374.016 0C374.016 0 400 1.13837 400 30.6546L400 60.8122C400 60.8122 399.033 88.6118 386.737 97.0592C374.441 105.507 343.217 111.813 343.217 111.813C343.217 111.813 302.046 119.908 275.846 120.26C246.863 120.649 241.478 115.02 223.698 100.619C201.951 83.0103 185.969 87.7716 174.848 98.3241L159.678 113.457C159.678 113.457 151.692 122.157 135.872 122.293L126.322 122.293C126.322 122.293 46.6188 115.02 17.9609 100.194C17.9609 100.194 2.75716e-05 93.2104 2.75716e-05 64.155L0 64.155Z" id="Shape" fill="url(#gradient_1)" stroke="none" />
          </g>
          <g id="Group" transform="translate(32.39272 0)">
            <path d="M27.0914 97.7368L0.00556945 98.8752C0.00556945 98.8752 -0.78044 38.2798 16.3312 0C16.3312 0 75.7882 9.4141 130.104 67.1545C130.104 67.1545 165.069 60.3153 205.381 67.1545C205.381 67.1545 257.457 11.7631 317.555 0.858275C317.555 0.858275 336.302 42.7068 336.022 98.8842L309 97.9175C309 97.9175 309.325 51.4704 301.085 34.1509C301.085 34.1509 246.227 53.0785 216.078 96.7068C216.078 96.7068 167.39 85.0883 119.624 96.9237C119.624 96.9237 89.3944 52.8707 34.6444 33.907C34.6444 33.907 23.5228 68.6272 27.0915 97.7458L27.0914 97.7368Z" id="Shape" fill="#2FBBB3" stroke="none" />
            <path d="M27.0914 97.7368L0.00556945 98.8752C0.00556945 98.8752 -0.78044 38.2798 16.3312 0C16.3312 0 75.7882 9.4141 130.104 67.1545C130.104 67.1545 165.069 60.3153 205.381 67.1545C205.381 67.1545 257.457 11.7631 317.555 0.858275C317.555 0.858275 336.302 42.7068 336.022 98.8842L309 97.9175C309 97.9175 309.325 51.4704 301.085 34.1509C301.085 34.1509 246.227 53.0785 216.078 96.7068C216.078 96.7068 167.39 85.0883 119.624 96.9237C119.624 96.9237 89.3944 52.8707 34.6444 33.907C34.6444 33.907 23.5228 68.6272 27.0915 97.7458L27.0914 97.7368Z" id="Shape" fill="#2FBBB3" stroke="none" />
            <path d="M27.0914 97.7368L0.00556945 98.8752C0.00556945 98.8752 -0.78044 38.2798 16.3312 0C16.3312 0 75.7882 9.4141 130.104 67.1545C130.104 67.1545 165.069 60.3153 205.381 67.1545C205.381 67.1545 257.457 11.7631 317.555 0.858275C317.555 0.858275 336.302 42.7068 336.022 98.8842L309 97.9175C309 97.9175 309.325 51.4704 301.085 34.1509C301.085 34.1509 246.227 53.0785 216.078 96.7068C216.078 96.7068 167.39 85.0883 119.624 96.9237C119.624 96.9237 89.3944 52.8707 34.6444 33.907C34.6444 33.907 23.5228 68.6272 27.0915 97.7458L27.0914 97.7368Z" id="Shape" fill="url(#gradient_2)" stroke="none" />
          </g>
          <path d="M199.106 272.584C199.106 272.584 216.66 260.577 223.662 251.47C230.664 242.363 215.305 241.216 215.305 241.216C215.305 241.216 204.743 240.267 199.096 242.571C199.096 242.571 191.634 241.216 182.825 241.623C174.016 242.029 170.818 246.275 175.859 252.094C181.379 258.463 199.096 272.593 199.096 272.593L199.106 272.584Z" id="Shape" fill="url(#gradient_3)" stroke="none" />
          <g id="Group" transform="translate(19.894312 233.60889)">
            <path d="M45.3359 23.9509C45.3359 23.9509 52.8888 23.5262 88.5395 20.5267C88.5395 20.5267 29.2271 12.9738 0 0C0 0 18.25 39.9241 93.5267 87.4012C93.5267 87.4012 123.892 106.934 181 134.734C181 134.734 210.724 122.185 258.915 93.6712C258.915 93.6712 332.195 48.9046 358.432 2.75716e-05C358.432 2.75716e-05 333.912 13.8321 270.886 20.1021C270.886 20.1021 290.563 22.4782 313.656 23.2913C313.656 23.2913 249.266 66.5131 180.097 82.7664C180.097 82.7664 143.398 79.4868 45.3269 23.9509L45.3359 23.9509Z" id="Shape" fill="#2FBBB3" stroke="none" />
            <path d="M45.3359 23.9509C45.3359 23.9509 52.8888 23.5262 88.5395 20.5267C88.5395 20.5267 29.2271 12.9738 0 0C0 0 18.25 39.9241 93.5267 87.4012C93.5267 87.4012 123.892 106.934 181 134.734C181 134.734 210.724 122.185 258.915 93.6712C258.915 93.6712 332.195 48.9046 358.432 2.75716e-05C358.432 2.75716e-05 333.912 13.8321 270.886 20.1021C270.886 20.1021 290.563 22.4782 313.656 23.2913C313.656 23.2913 249.266 66.5131 180.097 82.7664C180.097 82.7664 143.398 79.4868 45.3269 23.9509L45.3359 23.9509Z" id="Shape" fill="#2FBBB3" stroke="none" />
            <path d="M45.3359 23.9509C45.3359 23.9509 52.8888 23.5262 88.5395 20.5267C88.5395 20.5267 29.2271 12.9738 0 0C0 0 18.25 39.9241 93.5267 87.4012C93.5267 87.4012 123.892 106.934 181 134.734C181 134.734 210.724 122.185 258.915 93.6712C258.915 93.6712 332.195 48.9046 358.432 2.75716e-05C358.432 2.75716e-05 333.912 13.8321 270.886 20.1021C270.886 20.1021 290.563 22.4782 313.656 23.2913C313.656 23.2913 249.266 66.5131 180.097 82.7664C180.097 82.7664 143.398 79.4868 45.3269 23.9509L45.3359 23.9509Z" id="Shape" fill="url(#gradient_4)" stroke="none" />
          </g>
          <path d="M189.339 332.746C157.356 330.063 110.982 311.731 80.8691 298.451C90.3013 305.678 101.089 313.24 113.412 321.01C113.412 321.01 143.777 340.543 200.885 368.343C200.885 368.343 214.537 362.578 238.307 350.002C231.54 343.244 217.636 335.113 189.339 332.737L189.339 332.746Z" id="Shape" fill="url(#gradient_5)" stroke="none" />
          <g id="Group" transform="translate(249.64532 295.9118)" opacity="0.6">
            <path d="M28.92 31.5038C28.92 31.5038 44.6131 21.9181 64.0738 6.76694L48.9768 0C16.4431 17.8795 4.41796 36.238 0 47.992C8.67324 43.2398 18.3494 37.7558 28.9199 31.5038L28.92 31.5038Z" id="Shape" fill="url(#gradient_6)" stroke="none" />
            <path d="M28.92 31.5038C28.92 31.5038 44.6131 21.9181 64.0738 6.76694L48.9768 0C16.4431 17.8795 4.41796 36.238 0 47.992C8.67324 43.2398 18.3494 37.7558 28.9199 31.5038L28.92 31.5038Z" id="Shape" fill="url(#gradient_7)" stroke="none" />
          </g>
        </g>
      </g>
    </g>
  </g>
</svg>